<?xml version="1.0" standalone="no"?>
<!DOCTYPE svg PUBLIC "-//W3C//DTD SVG 20010904//EN"
 "http://www.w3.org/TR/2001/REC-SVG-20010904/DTD/svg10.dtd">
<svg version="1.0" xmlns="http://www.w3.org/2000/svg"
 width="512.000000pt" height="512.000000pt" viewBox="0 0 512.000000 512.000000"
 preserveAspectRatio="xMidYMid meet">

<g transform="translate(0.000000,512.000000) scale(0.100000,-0.100000)"
fill="#330C2F" stroke="none">
<path d="M3082 5104 c-42 -22 -73 -65 -79 -113 -7 -53 100 -454 133 -498 33
-44 99 -68 150 -54 62 17 114 81 114 141 0 47 -108 441 -128 469 -47 63 -127
87 -190 55z"/>
<path d="M3830 4990 c-19 -10 -42 -31 -52 -47 -21 -37 -128 -432 -128 -475 0
-131 191 -189 268 -81 23 33 132 429 132 482 0 106 -122 174 -220 121z"/>
<path d="M2483 4631 c-67 -31 -100 -115 -72 -188 12 -32 311 -338 351 -359 15
-8 46 -14 70 -14 110 0 180 114 133 214 -9 18 -84 101 -168 184 -188 186 -222
204 -314 163z"/>
<path d="M4574 4265 c-34 -7 -79 -22 -100 -33 -22 -11 -460 -263 -974 -560
-514 -297 -936 -539 -938 -538 -1 2 14 61 33 132 64 230 57 384 -24 550 -68
138 -186 247 -341 314 -71 31 -186 34 -241 7 -43 -22 -95 -70 -115 -108 -8
-16 -88 -306 -179 -645 -111 -412 -177 -642 -200 -691 -64 -138 -172 -265
-295 -346 -30 -20 -298 -176 -595 -347 -297 -172 -548 -319 -559 -328 -46 -41
-46 -38 -46 -817 0 -718 0 -737 20 -775 13 -26 34 -47 60 -60 39 -20 53 -20
857 -18 l818 3 156 92 157 91 168 -44 c142 -36 184 -43 264 -43 107 -1 200 16
288 52 33 13 398 219 813 458 637 367 762 443 810 491 179 177 179 460 -1 637
l-58 57 19 36 c44 87 60 213 38 307 -28 121 -134 254 -240 301 l-56 25 5 66
c8 114 -30 226 -110 322 -22 27 -39 49 -37 51 2 2 215 124 473 272 507 291
558 327 614 432 101 188 75 388 -69 533 -65 66 -136 105 -228 125 -80 17 -107
16 -187 -1z m138 -295 c45 -13 95 -68 104 -115 7 -40 -16 -114 -43 -137 -8 -7
-414 -243 -902 -525 -608 -351 -893 -521 -910 -542 -34 -45 -39 -109 -11 -158
28 -50 72 -76 130 -77 40 -1 70 14 295 144 225 130 255 145 295 144 90 -1 157
-74 148 -159 -9 -75 -31 -94 -289 -242 -264 -151 -289 -173 -296 -251 -8 -83
60 -156 145 -156 43 0 71 14 296 144 224 129 254 144 296 144 61 0 111 -31
135 -83 21 -48 16 -111 -13 -150 -10 -14 -129 -90 -263 -168 -153 -89 -253
-153 -268 -173 -35 -45 -40 -115 -9 -159 37 -54 72 -75 125 -75 42 1 69 12
213 95 147 84 170 94 212 93 81 -1 143 -63 143 -142 0 -95 29 -75 -795 -551
-481 -278 -773 -440 -813 -453 -94 -30 -193 -21 -406 37 -115 31 -186 45 -207
42 -18 -3 -107 -49 -197 -101 l-166 -96 -680 0 -681 0 0 589 0 588 514 297
c283 163 546 320 586 347 178 125 337 338 408 545 12 34 87 309 168 610 81
302 150 553 154 557 11 13 66 -19 112 -65 54 -54 90 -135 96 -218 4 -60 -4
-97 -82 -388 -47 -177 -86 -336 -86 -354 0 -73 70 -138 150 -138 52 0 -95 -83
1828 1029 249 144 463 266 475 271 30 12 45 12 89 0z"/>
</g>
</svg>
