<?xml version="1.0" standalone="no"?>
<!DOCTYPE svg PUBLIC "-//W3C//DTD SVG 20010904//EN"
 "http://www.w3.org/TR/2001/REC-SVG-20010904/DTD/svg10.dtd">
<svg version="1.0" xmlns="http://www.w3.org/2000/svg"
 width="512.000000pt" height="512.000000pt" viewBox="0 0 512.000000 512.000000"
 preserveAspectRatio="xMidYMid meet">

<g transform="translate(0.000000,512.000000) scale(0.100000,-0.100000)"
fill="#330C2F" stroke="none">
<path d="M1855 5106 c-41 -19 -71 -54 -83 -99 -9 -33 -6 -58 22 -165 106 -407
110 -416 168 -452 92 -56 218 13 218 118 0 61 -118 506 -145 546 -39 58 -116
80 -180 52z"/>
<path d="M3100 4952 c-53 -26 -72 -65 -120 -243 -46 -175 -51 -230 -22 -269
67 -90 191 -92 248 -4 25 38 104 330 104 385 0 80 -67 149 -145 149 -16 0 -46
-8 -65 -18z"/>
<path d="M4234 4441 c-21 -16 -114 -105 -206 -197 -134 -137 -168 -177 -177
-209 -30 -113 72 -214 184 -184 32 9 74 45 209 177 206 204 226 230 226 289 0
95 -56 153 -147 153 -39 0 -58 -6 -89 -29z"/>
<path d="M845 4350 c-11 -4 -33 -22 -49 -39 -23 -24 -30 -42 -34 -85 -6 -72 7
-91 160 -243 96 -94 132 -123 163 -132 113 -30 214 72 184 184 -9 30 -38 68
-123 154 -146 149 -176 171 -235 170 -25 0 -55 -4 -66 -9z"/>
<path d="M1682 3651 c-283 -72 -484 -296 -537 -596 -19 -109 -19 -174 0 -298
72 -476 460 -977 1120 -1443 55 -39 134 -92 175 -118 124 -77 148 -71 391 100
392 275 765 648 949 949 139 226 211 455 212 671 0 136 -18 217 -79 344 -40
82 -58 107 -142 190 -109 109 -207 165 -345 200 -95 24 -249 26 -347 6 -151
-32 -334 -135 -456 -256 l-63 -62 -71 67 c-115 108 -239 182 -389 230 -115 37
-307 44 -418 16z m312 -296 c139 -36 282 -140 398 -286 78 -99 106 -119 168
-119 62 0 90 20 168 119 120 152 279 262 419 291 81 17 217 8 277 -19 241
-106 325 -371 219 -691 -114 -341 -456 -730 -960 -1090 -61 -44 -116 -80 -122
-80 -15 0 -235 158 -358 257 -132 106 -358 326 -447 437 -149 184 -254 372
-298 532 -30 113 -30 294 1 379 50 137 162 244 288 274 61 14 184 12 247 -4z"/>
<path d="M112 3350 c-126 -29 -149 -215 -34 -274 47 -24 496 -140 537 -138 96
3 166 124 121 210 -31 59 -54 70 -297 135 -272 74 -283 77 -327 67z"/>
<path d="M4795 3313 c-132 -29 -353 -97 -373 -116 -73 -68 -69 -166 8 -231 25
-21 42 -26 83 -26 64 1 359 80 395 107 85 62 77 193 -14 244 -35 20 -72 28
-99 22z"/>
<path d="M391 2135 c-84 -23 -165 -51 -180 -62 -114 -84 -50 -269 93 -265 66
1 367 89 394 115 73 68 69 166 -8 231 -45 37 -110 33 -299 -19z"/>
<path d="M4430 2154 c-77 -65 -81 -163 -8 -231 29 -27 490 -156 557 -155 134
1 189 185 79 265 -36 27 -480 146 -545 147 -41 0 -58 -5 -83 -26z"/>
<path d="M1076 1265 c-28 -10 -87 -61 -204 -177 -206 -205 -222 -226 -222
-291 0 -91 58 -147 153 -147 59 0 85 20 289 226 135 137 168 177 177 210 31
117 -79 220 -193 179z"/>
<path d="M3945 1265 c-75 -27 -114 -103 -94 -180 9 -31 37 -66 123 -154 145
-148 176 -171 233 -171 54 0 101 21 127 57 21 29 32 98 22 139 -8 30 -245 278
-286 299 -42 22 -83 25 -125 10z"/>
<path d="M1965 731 c-16 -10 -38 -27 -47 -38 -22 -24 -110 -345 -110 -396 2
-139 183 -197 265 -85 27 36 106 331 107 395 0 41 -5 58 -26 83 -51 60 -130
78 -189 41z"/>
<path d="M3010 728 c-51 -35 -71 -68 -71 -118 -1 -46 112 -484 137 -532 61
-118 243 -93 272 38 8 34 4 63 -23 165 -78 299 -98 369 -116 398 -42 69 -135
92 -199 49z"/>
</g>
</svg>
