<?xml version="1.0" standalone="no"?>
<!DOCTYPE svg PUBLIC "-//W3C//DTD SVG 20010904//EN"
 "http://www.w3.org/TR/2001/REC-SVG-20010904/DTD/svg10.dtd">
<svg version="1.0" xmlns="http://www.w3.org/2000/svg"
 width="512.000000pt" height="512.000000pt" viewBox="0 0 512.000000 512.000000"
 preserveAspectRatio="xMidYMid meet">

<g transform="translate(0.000000,512.000000) scale(0.100000,-0.100000)"
fill="#330C2F" stroke="none">
<path d="M2085 4469 c-144 -21 -332 -99 -455 -189 -74 -55 -188 -171 -242
-245 -180 -251 -235 -601 -141 -900 52 -164 127 -289 253 -419 l90 -93 -83
-41 c-290 -143 -525 -411 -635 -722 -64 -183 -67 -211 -67 -686 l0 -431 29
-37 c68 -90 190 -86 260 8 20 26 21 43 27 454 5 394 7 433 27 503 84 305 294
547 573 658 157 63 184 66 524 66 355 -1 389 -6 564 -91 274 -131 459 -364
526 -659 33 -148 70 -194 162 -202 68 -5 120 26 152 91 l25 50 -22 109 c-79
387 -326 708 -682 889 l-81 41 84 86 c46 47 102 113 124 146 220 327 242 727
59 1071 -207 388 -634 605 -1071 543z m370 -343 c113 -36 198 -89 290 -181 91
-91 144 -175 182 -290 23 -71 26 -96 26 -215 0 -119 -3 -144 -26 -215 -38
-115 -91 -199 -182 -290 -91 -91 -175 -144 -290 -182 -71 -23 -96 -26 -215
-26 -119 0 -144 3 -215 26 -115 38 -199 91 -290 182 -91 91 -144 175 -182 290
-23 71 -26 96 -26 215 0 119 3 144 26 215 38 115 91 199 182 290 112 112 235
179 379 205 89 16 251 5 341 -24z"/>
<path d="M4100 1589 c-14 -5 -150 -134 -302 -287 l-278 -276 -122 121 c-100
98 -130 123 -160 128 -121 23 -219 -81 -187 -197 9 -36 41 -73 188 -222 196
-199 231 -223 310 -211 45 6 56 17 394 353 192 191 355 360 364 376 24 47 13
129 -23 167 -50 54 -122 72 -184 48z"/>
</g>
</svg>
